<?xml version="1.0" standalone="no"?>
<!DOCTYPE svg PUBLIC "-//W3C//DTD SVG 20010904//EN"
 "http://www.w3.org/TR/2001/REC-SVG-20010904/DTD/svg10.dtd">
<svg version="1.0" xmlns="http://www.w3.org/2000/svg"
 width="1024.000000pt" height="1024.000000pt" viewBox="0 0 1024.000000 1024.000000"
 preserveAspectRatio="xMidYMid meet">

<g transform="translate(0.000000,1024.000000) scale(0.100000,-0.100000)"
fill="#fdffe0" stroke="none">
<path d="M4335 7593 c-240 -30 -475 -117 -693 -259 -118 -76 -306 -267 -395
-399 -111 -169 -172 -313 -223 -530 -26 -112 -28 -135 -28 -335 0 -185 3 -229
22 -317 39 -180 114 -362 214 -520 l40 -63 102 162 c169 270 343 523 387 563
53 48 126 81 212 95 132 23 278 -26 360 -121 l41 -47 101 161 c87 139 165 261
398 626 54 84 120 135 208 162 142 43 299 8 390 -88 20 -21 92 -123 160 -228
67 -104 174 -269 238 -365 l115 -175 9 60 c12 86 1 347 -18 435 -101 463 -394
841 -805 1040 -113 54 -306 116 -421 135 -86 14 -331 19 -414 8z"/>
<path d="M5153 6428 c-11 -13 -59 -84 -105 -158 -99 -157 -339 -535 -422 -663
-31 -49 -56 -95 -54 -103 4 -16 231 -344 238 -343 3 0 56 80 118 177 63 97
149 228 192 290 l78 113 49 -73 c27 -40 85 -127 130 -193 44 -66 164 -247 267
-403 l187 -284 -79 -111 c-125 -178 -270 -388 -397 -577 -64 -96 -120 -176
-124 -177 -6 -1 -150 216 -666 1002 -336 511 -468 706 -489 721 -32 22 -70 17
-101 -13 -15 -15 -117 -163 -228 -328 -110 -165 -309 -462 -442 -660 -133
-198 -417 -621 -630 -940 -214 -319 -421 -628 -461 -687 -93 -139 -107 -170
-112 -246 -7 -107 47 -204 142 -255 l41 -22 2905 0 2905 0 55 30 c93 51 152
172 135 276 -11 62 -42 115 -300 504 -239 362 -319 484 -872 1330 -165 253
-358 548 -430 655 -71 107 -147 222 -168 255 -47 73 -75 105 -90 105 -10 0
-317 -453 -328 -484 -2 -6 -7 -9 -10 -6 -7 7 -422 633 -468 707 -48 76 -291
453 -338 523 -31 47 -41 55 -71 58 -27 2 -41 -3 -57 -20z m1201 -1462 c36 -52
66 -97 66 -101 0 -3 -35 -57 -77 -118 -42 -62 -146 -215 -231 -342 -85 -126
-158 -231 -162 -233 -11 -4 -142 199 -137 211 14 35 459 677 469 677 3 0 36
-42 72 -94z m-2042 -430 c72 -106 79 -121 69 -143 -6 -13 -126 -198 -268 -411
-141 -213 -290 -439 -331 -502 -40 -63 -77 -113 -80 -110 -13 9 -352 521 -352
532 0 12 163 262 473 726 l208 313 101 -143 c55 -79 137 -196 180 -262z"/>
</g>
</svg>